<svg xmlns="http://www.w3.org/2000/svg" width="18.727" height="17.287" viewBox="0 0 18.727 17.287"><defs><style>.a{fill:#6b6b6b;}</style></defs><g transform="translate(-3.375 -4.5)"><path class="a" d="M18.841,4.5H3.807a.433.433,0,0,0-.432.367v9.643a.451.451,0,0,0,.432.388H6.391v4l4.057-4h8.392a.363.363,0,0,0,.335-.388V4.867A.344.344,0,0,0,18.841,4.5Z"/><path class="a" d="M25.078,8.93H23.62v7.5c0,.72-.311,1.19-1.132,1.19H14.351L12.6,19.374h5.838l4.057,4.007V19.374h2.584a.371.371,0,0,0,.342-.391V9.339A.39.39,0,0,0,25.078,8.93Z" transform="translate(-3.318 -1.594)"/></g></svg>