<svg xmlns="http://www.w3.org/2000/svg" width="148.047" height="49.519" viewBox="0 0 148.047 49.519"><defs><style>.a{fill:#fff;}</style></defs><g transform="translate(-21.109 -15.542)"><g transform="translate(21.109 15.542)"><g transform="translate(14.373)"><g transform="translate(2.205 2.204)"><path class="a" d="M52.335,61.805,29.779,39.251,52.335,16.695,74.889,39.251ZM30.718,39.251,52.335,60.866,73.95,39.251,52.335,17.634Z" transform="translate(-29.779 -16.695)"/></g><path class="a" d="M53.387,65.061a1.041,1.041,0,0,1-.738-.3h0L28.932,41.038a1.041,1.041,0,0,1,0-1.474L52.649,15.848a1.042,1.042,0,0,1,1.474,0L77.839,39.564a1.042,1.042,0,0,1,0,1.474L54.123,64.757A1.039,1.039,0,0,1,53.387,65.061Zm-.27-.774a.38.38,0,0,0,.537,0L77.371,40.57a.37.37,0,0,0,.111-.268.377.377,0,0,0-.111-.27L53.654,16.316a.382.382,0,0,0-.537,0L29.4,40.033a.385.385,0,0,0-.111.27.378.378,0,0,0,.111.268L53.117,64.287Z" transform="translate(-28.626 -15.542)"/></g><g transform="translate(0 9.111)"><g transform="translate(2.199 2.198)"><path class="a" d="M35.708,48.357,22.259,34.908,35.708,21.457,49.159,34.908ZM23.2,34.908,35.708,47.42,48.22,34.908,35.708,22.4Z" transform="translate(-22.259 -21.457)"/></g><path class="a" d="M36.757,51.6a1.039,1.039,0,0,1-.736-.3v0L21.415,36.693a1.041,1.041,0,0,1,0-1.474L36.021,20.613a1.042,1.042,0,0,1,1.474,0L52.1,35.219a1.043,1.043,0,0,1,0,1.476L37.495,51.3A1.035,1.035,0,0,1,36.757,51.6Zm-.268-.774a.38.38,0,0,0,.537,0L51.632,36.224a.378.378,0,0,0,.111-.268.385.385,0,0,0-.111-.27L37.027,21.081a.382.382,0,0,0-.537,0L21.883,35.687a.377.377,0,0,0-.111.27.37.37,0,0,0,.111.268Z" transform="translate(-21.109 -20.307)"/></g><g transform="translate(47.246 9.111)"><g transform="translate(2.201 2.198)"><path class="a" d="M60.419,48.357,46.97,34.908,60.419,21.457,73.868,34.908ZM47.907,34.908,60.419,47.42,72.931,34.908,60.419,22.4Z" transform="translate(-46.97 -21.457)"/></g><path class="a" d="M61.469,51.6a1.044,1.044,0,0,1-.738-.3v0L46.125,36.693a1.041,1.041,0,0,1,0-1.474L60.731,20.613a1.044,1.044,0,0,1,1.476,0L76.813,35.219a1.043,1.043,0,0,1,0,1.476L62.207,51.3A1.038,1.038,0,0,1,61.469,51.6ZM61.2,50.83a.378.378,0,0,0,.535,0L76.342,36.224a.372.372,0,0,0,.113-.268.379.379,0,0,0-.113-.27L61.737,21.081a.38.38,0,0,0-.535,0L46.6,35.687a.379.379,0,0,0-.113.27.372.372,0,0,0,.113.268Z" transform="translate(-45.819 -20.307)"/></g></g><g transform="translate(100.204 23.052)"><path class="a" d="M90.344,35.711c1.746-4.967,3.457-9.954,5.2-14.921a3.913,3.913,0,0,0,.159-1.317c-.939.033-1.878.036-2.813,0-1.545,4.325-2.918,8.713-4.348,13.078a2.242,2.242,0,0,1-.554-1.105c-1.233-3.983-2.514-7.954-3.755-11.937q-1.626-.02-3.252-.013c1.811,5.53,3.751,11.019,5.658,16.518a1.588,1.588,0,0,1,.021,1.182c-2,5.784-4.12,11.526-6.053,17.334,1,0,2.015-.008,3.021.036,1.748-4.721,3.118-9.579,4.759-14.344C90,44.978,91.5,49.768,93.084,54.533c1.065.006,2.134.006,3.2-.011C94.338,48.7,92.3,42.9,90.315,37.091A1.8,1.8,0,0,1,90.344,35.711Z" transform="translate(-45.939 -19.468)"/><path class="a" d="M84.8,37.146a2.5,2.5,0,0,0,.916-2.273c-.017-4.312.019-8.623-.017-12.935A2.6,2.6,0,0,0,82.892,19.5c-3.8-.027-7.595-.011-11.394-.008q-.037,17.515-.006,35.028c.969,0,1.941-.008,2.912.036a4.365,4.365,0,0,0,.247-2.094c-.044-2.771.1-5.543-.138-8.3.2-3.977-.2-7.967.138-11.948-.3-3.277.155-6.564-.013-9.851,2.6-.212,5.216-.126,7.828-.09.191,1.314.029,2.646.151,3.967-.145,2.948.117,5.893-.151,8.839-1.769-.017-3.533.027-5.3-.027a1.074,1.074,0,0,0-.354,1.327q2.88,8.254,5.748,16.518c.2.524.2,1.174.65,1.574,1.046.126,2.107.025,3.159.046-1.948-5.612-4.063-11.176-5.987-16.8C81.848,37.7,83.509,38.045,84.8,37.146Z" transform="translate(-54.262 -19.457)"/><path class="a" d="M100.755,40.828a11.993,11.993,0,0,1-.925-3.13c1.4.036,2.975.3,4.218-.509a2.508,2.508,0,0,0,.916-2.321q0-6.146,0-12.287a3.137,3.137,0,0,0-.455-2.029,3.042,3.042,0,0,0-2.728-1.069c-3.673.01-7.344,0-11.017.01q-.023,17.509,0,35.024c1.04.013,2.086.013,3.13-.013V22.31a60.723,60.723,0,0,1,7.914.033c.138,4.216-.019,8.44.08,12.656-1.818.172-3.648.055-5.472.059a1.146,1.146,0,0,0-.273,1.482c2.075,6,4.2,11.975,6.26,17.971q1.612.02,3.231.008C104.068,49.933,102.371,45.4,100.755,40.828Z" transform="translate(-36.682 -19.458)"/><path class="a" d="M62.477,22.274h5.543v32.3H71.06v-32.3h5.5v-2.8H62.477Z" transform="translate(-62.477 -19.47)"/></g></g></svg>