<svg xmlns="http://www.w3.org/2000/svg" xmlns:xlink="http://www.w3.org/1999/xlink" width="77.43" height="25.899" viewBox="0 0 77.43 25.899"><defs><style>.a{fill:url(#a);}.b{fill:url(#b);}.c{fill:url(#c);}.d{fill:url(#d);}.e{fill:url(#e);}.f{fill:url(#f);}.g{fill:#fff;}</style><linearGradient id="a" x1="0.789" y1="0.222" x2="0.244" y2="0.746" gradientUnits="objectBoundingBox"><stop offset="0" stop-color="#739846"/><stop offset="1" stop-color="#ff0300"/></linearGradient><linearGradient id="b" x1="0.763" y1="0.247" x2="0.267" y2="0.724" xlink:href="#a"/><linearGradient id="c" x1="0.793" y1="0.207" x2="0.221" y2="0.779" xlink:href="#a"/><linearGradient id="d" x1="0.752" y1="0.248" x2="0.26" y2="0.74" xlink:href="#a"/><linearGradient id="e" x1="0.796" y1="0.193" x2="0.204" y2="0.808" xlink:href="#a"/><linearGradient id="f" x1="0.754" y1="0.236" x2="0.245" y2="0.764" xlink:href="#a"/></defs><g transform="translate(-21.109 -15.542)"><path class="a" d="M41.576,40.288l-11.8-11.8,11.8-11.8,11.8,11.8ZM30.27,28.492,41.576,39.8,52.881,28.492,41.576,17.186Z"/><path class="b" d="M41.576,41.441a.544.544,0,0,1-.386-.159h0l-12.4-12.405a.544.544,0,0,1,0-.771l12.4-12.4a.545.545,0,0,1,.771,0l12.4,12.4a.545.545,0,0,1,0,.771l-12.4,12.405A.544.544,0,0,1,41.576,41.441Zm-.141-.405a.2.2,0,0,0,.281,0l12.4-12.4a.193.193,0,0,0,.058-.14.2.2,0,0,0-.058-.141l-12.4-12.4a.2.2,0,0,0-.281,0l-12.4,12.4a.2.2,0,0,0-.058.141.2.2,0,0,0,.058.14l12.4,12.4Z"/><path class="c" d="M29.293,35.526l-7.034-7.034,7.034-7.035,7.035,7.035Zm-6.544-7.034,6.544,6.544,6.544-6.544-6.544-6.544Z"/><path class="d" d="M29.293,36.676a.544.544,0,0,1-.385-.159h0l-7.639-7.639a.544.544,0,0,1,0-.771l7.639-7.639a.545.545,0,0,1,.771,0l7.639,7.639a.546.546,0,0,1,0,.772l-7.639,7.638A.541.541,0,0,1,29.293,36.676Zm-.14-.4a.2.2,0,0,0,.281,0l7.639-7.639a.2.2,0,0,0,.058-.14.2.2,0,0,0-.058-.141l-7.639-7.639a.2.2,0,0,0-.281,0l-7.639,7.639a.2.2,0,0,0-.058.141.193.193,0,0,0,.058.14Z"/><path class="e" d="M54,35.526,46.97,28.492,54,21.457l7.034,7.035ZM47.46,28.492,54,35.036l6.544-6.544L54,21.948Z"/><path class="f" d="M54,36.676a.546.546,0,0,1-.386-.159h0l-7.639-7.639a.544.544,0,0,1,0-.771l7.639-7.639a.546.546,0,0,1,.772,0l7.639,7.639a.546.546,0,0,1,0,.772L54.39,36.516A.543.543,0,0,1,54,36.676Zm-.14-.4a.2.2,0,0,0,.28,0l7.639-7.639a.194.194,0,0,0,.059-.14.2.2,0,0,0-.059-.141l-7.639-7.639a.2.2,0,0,0-.28,0l-7.639,7.639a.2.2,0,0,0-.059.141.194.194,0,0,0,.059.14Z"/><path class="g" d="M85.7,27.965c.913-2.6,1.808-5.206,2.722-7.8a2.047,2.047,0,0,0,.083-.689c-.491.017-.982.019-1.471,0-.808,2.262-1.526,4.557-2.274,6.84a1.173,1.173,0,0,1-.29-.578c-.645-2.083-1.315-4.16-1.964-6.243q-.851-.01-1.7-.007c.947,2.892,1.962,5.763,2.959,8.639a.83.83,0,0,1,.011.618c-1.047,3.025-2.155,6.028-3.166,9.066.525,0,1.054,0,1.58.019.914-2.469,1.631-5.01,2.489-7.5.843,2.486,1.629,4.991,2.455,7.483.557,0,1.116,0,1.674-.006-1.018-3.046-2.083-6.077-3.122-9.116A.942.942,0,0,1,85.7,27.965Z"/><path class="g" d="M78.448,28.722a1.3,1.3,0,0,0,.479-1.189c-.009-2.255.01-4.51-.009-6.765a1.361,1.361,0,0,0-1.468-1.275c-1.986-.014-3.972-.006-5.959,0q-.02,9.161,0,18.32c.507,0,1.015,0,1.523.019a2.283,2.283,0,0,0,.129-1.095c-.023-1.449.05-2.9-.072-4.342.1-2.08-.107-4.167.072-6.249-.158-1.714.081-3.433-.007-5.152,1.36-.111,2.728-.066,4.094-.047.1.687.015,1.384.079,2.075-.076,1.542.061,3.082-.079,4.623-.925-.009-1.848.014-2.773-.014a.561.561,0,0,0-.185.694q1.506,4.317,3.006,8.639c.106.274.1.614.34.823.547.066,1.1.013,1.652.024-1.019-2.935-2.125-5.845-3.131-8.785A3.974,3.974,0,0,0,78.448,28.722Z"/><path class="g" d="M95.987,30.647A6.273,6.273,0,0,1,95.5,29.01a3.736,3.736,0,0,0,2.206-.266,1.312,1.312,0,0,0,.479-1.214q0-3.215,0-6.426a1.641,1.641,0,0,0-.238-1.061,1.591,1.591,0,0,0-1.427-.559c-1.921.005-3.841,0-5.762.005q-.012,9.157,0,18.318c.544.007,1.091.007,1.637-.007V20.962a31.758,31.758,0,0,1,4.139.017c.072,2.2-.01,4.414.042,6.619-.951.09-1.908.029-2.862.031a.6.6,0,0,0-.143.775c1.085,3.137,2.2,6.263,3.274,9.4q.843.01,1.69,0C97.72,35.409,96.832,33.036,95.987,30.647Z"/><path class="g" d="M62.477,20.937h2.9V37.828h1.59V20.937h2.877V19.47H62.477Z"/></g></svg>