<svg xmlns="http://www.w3.org/2000/svg" width="24.998" height="20.303" viewBox="0 0 24.998 20.303"><defs><style>.a{fill:#1ca9f4;}</style></defs><path class="a" d="M22.428,8.441c.016.222.016.444.016.666A14.477,14.477,0,0,1,7.867,23.683,14.478,14.478,0,0,1,0,21.384a10.6,10.6,0,0,0,1.237.063A10.26,10.26,0,0,0,7.6,19.258a5.132,5.132,0,0,1-4.79-3.553,6.461,6.461,0,0,0,.968.079,5.419,5.419,0,0,0,1.348-.174,5.124,5.124,0,0,1-4.108-5.028v-.063a5.16,5.16,0,0,0,2.316.65A5.131,5.131,0,0,1,1.745,4.317,14.563,14.563,0,0,0,12.308,9.678,5.784,5.784,0,0,1,12.182,8.5,5.128,5.128,0,0,1,21.048,5,10.087,10.087,0,0,0,24.3,3.761a5.109,5.109,0,0,1-2.252,2.823A10.271,10.271,0,0,0,25,5.792a11.013,11.013,0,0,1-2.569,2.649Z" transform="translate(0 -3.381)"/></svg>